<svg width="15" height="15" viewBox="0 0 15 15" fill="none" xmlns="http://www.w3.org/2000/svg">
<path d="M2.09375 12.9062C1.51042 12.3229 1.07292 11.6667 0.78125 10.9375C0.489583 10.2083 0.34375 9.45833 0.34375 8.6875C0.34375 7.89583 0.489583 7.13542 0.78125 6.40625C1.07292 5.67708 1.51042 5.02083 2.09375 4.4375C2.67708 3.83333 3.33333 3.39583 4.0625 3.125C4.8125 2.83333 5.57292 2.6875 6.34375 2.6875V0.65625L9 3.34375L6.34375 6V4.03125C5.73958 4.03125 5.14583 4.14583 4.5625 4.375C4 4.58333 3.48958 4.91667 3.03125 5.375C2.57292 5.83333 2.22917 6.34375 2 6.90625C1.77083 7.46875 1.65625 8.05208 1.65625 8.65625C1.65625 9.26042 1.77083 9.85417 2 10.4375C2.22917 11 2.57292 11.5104 3.03125 11.9688C3.53125 12.4688 4.09375 12.8333 4.71875 13.0625C5.36458 13.2708 6.01042 13.3542 6.65625 13.3125C7.32292 13.2708 7.95833 13.0938 8.5625 12.7812L9.53125 13.75C8.76042 14.2292 7.92708 14.5208 7.03125 14.625C6.13542 14.7292 5.25 14.6458 4.375 14.375C3.52083 14.0833 2.76042 13.5938 2.09375 12.9062ZM6.34375 8.65625L10.3438 4.65625L14.3438 8.65625L10.3438 12.6562L6.34375 8.65625Z" fill="#1A4F6E"/>
</svg>
